<?xml version="1.0" encoding="utf-8"?>
<!-- Generator: Adobe Illustrator 28.0.0, SVG Export Plug-In . SVG Version: 6.00 Build 0)  -->
<svg version="1.1" xmlns="http://www.w3.org/2000/svg" xmlns:xlink="http://www.w3.org/1999/xlink" x="0px" y="0px"
	 viewBox="0 0 300 300" style="enable-background:new 0 0 300 300;" xml:space="preserve">
<style type="text/css">
	.st0{display:none;}
	.st1{fill-rule:evenodd;clip-rule:evenodd;fill:#FFFFFF;}
	.st2{fill:none;stroke:#000000;stroke-miterlimit:10;}
	.st3{fill-rule:evenodd;clip-rule:evenodd;fill:#8A6C46;}
	.st4{fill:#333333;}
	.st5{fill-rule:evenodd;clip-rule:evenodd;fill:#003E4A;stroke:#000000;stroke-width:3;stroke-miterlimit:10;}
</style>
<g id="Layer_1" class="st0">
</g>
<g id="Layer_3">
	<circle class="st1" cx="150" cy="150" r="150"/>
</g>
<g id="Layer_2">
	<path class="st2" d="M-59.94,373.55"/>
	<path class="st2" d="M-89.92,356.21"/>
	<g>
		<g>
			<path class="st3" d="M120.89,253.31l0.06-68.1l105.08-60.56l0.02-18.48l-58.97-34.11l28.01-16.14l58.97,34.11l-0.1,120.09
				L149.9,270.09L120.89,253.31z M148.95,201.39v36.93l77.02-44.38l0.03-36.95L148.95,201.39z"/>
			<path class="st4" d="M195.08,57.08l57.97,33.53l-0.08,102.77l-0.01,16.17L149.9,268.94l-28.01-16.2l0.05-66.94l104.08-59.98
				l1-0.58l0-1.15l0.01-17.32l0-1.15l-1-0.58l-1.74-1.01l-6.84-3.96l-6.41-3.71l-29.99-17.35l-11.99-6.94L195.08,57.08
				 M147.95,240.05l3-1.73l75.02-43.23l1-0.58l0-1.15l0.03-34.64l0-3.46l-3,1.73l-75.04,43.25l-1,0.58v1.16v34.62V240.05
				 M195.08,54.77l-30.01,17.3l14.99,8.67h0l29.99,17.35l6.41,3.71l6.84,3.96l1.74,1.01l-0.01,17.32l-105.08,60.56l-0.06,69.25
				l30.01,17.36l105.05-60.54l0.01-17.32l0.08-103.92L195.08,54.77L195.08,54.77z M149.95,236.59v-34.62L225,158.72l-0.03,34.64
				L149.95,236.59L149.95,236.59z"/>
		</g>
		<g>
			<polygon class="st3" points="45.95,209.96 46.05,89.87 150.1,29.91 178.09,46.1 74.03,106.06 74,143.01 165,90.57 193.01,106.75 
				73.98,175.34 73.96,193.82 103.94,211.16 103.94,243.51 			"/>
			<path class="st4" d="M150.1,31.06l25.99,15.03l-25.98,14.97l0,0l-1.03,0.59l-75.04,43.24l-1,0.58l0,1.15L73,141.28l0,3.46l3-1.73
				L165,91.73l26.01,15.02L73.98,174.19l-1,0.58l0,1.15l-0.01,17.32l0,1.15l1,0.58l28.98,16.76v30.04l-55.99-32.39l0.08-102.77
				l0.01-16.17L150.1,31.06 M150.1,28.75L45.05,89.29l-0.01,17.32l-0.08,103.92l59.99,34.7v-34.66l-29.98-17.34l0.01-17.32
				l120.04-69.17L165,89.42L75,141.28l0.03-34.64l75.04-43.24l0,0l30.01-17.3l0,0L150.1,28.75L150.1,28.75z"/>
		</g>
	</g>
	<path class="st5" d="M102.77,265.4"/>
</g>
</svg>
