<?xml version="1.0" encoding="utf-8"?>
<!-- Generator: Adobe Illustrator 28.0.0, SVG Export Plug-In . SVG Version: 6.00 Build 0)  -->
<svg version="1.1" xmlns="http://www.w3.org/2000/svg" xmlns:xlink="http://www.w3.org/1999/xlink" x="0px" y="0px"
	 viewBox="0 0 600 600" style="enable-background:new 0 0 600 600;" xml:space="preserve">
<style type="text/css">
	.st0{fill-rule:evenodd;clip-rule:evenodd;fill:#FFFFFF;}
	.st1{fill:#8A6D47;stroke:#594A42;stroke-width:2;stroke-miterlimit:10;}
</style>
<g id="Layer_2">
</g>
<g id="Layer_1">
	<circle class="st0" cx="300" cy="300" r="300"/>
	<path class="st1" d="M300,50C161.93,50,50,161.93,50,300s111.93,250,250,250s250-111.93,250-250S438.07,50,300,50z M282,282H169.23
		c8-58.41,54.36-104.77,112.77-112.77V282z M282,132.97c-84.2,9.01-150,80.48-150,167.03c0,44.87,17.48,87.06,49.21,118.79
		l25.46-25.46c-20.64-20.64-33.59-46.91-37.44-75.34H282v195.25c-22.54-1.86-44.44-7.23-65.29-16.05
		c-25.48-10.78-48.37-26.21-68.03-45.88c-19.66-19.67-35.1-42.55-45.88-68.03C91.65,356.93,86,328.91,86,300s5.65-56.93,16.8-83.29
		c10.78-25.48,26.21-48.37,45.88-68.03c19.67-19.66,42.55-35.1,68.03-45.88c20.85-8.82,42.74-14.18,65.29-16.05V132.97z M318,169.23
		c64.3,8.81,114,64.09,114,130.77s-49.7,121.96-114,130.77V169.23z M451.32,451.32c-19.67,19.66-42.55,35.1-68.03,45.88
		c-20.85,8.82-42.74,14.18-65.29,16.05v-46.21c84.2-9.01,150-80.48,150-167.03s-65.8-158.02-150-167.03V86.75
		c22.54,1.86,44.44,7.23,65.29,16.05c25.48,10.78,48.37,26.21,68.03,45.88c19.66,19.67,35.1,42.55,45.88,68.03
		C508.35,243.07,514,271.09,514,300s-5.65,56.93-16.8,83.29C486.42,408.77,470.99,431.66,451.32,451.32z"/>
</g>
</svg>
