<?xml version="1.0" encoding="utf-8"?>
<!-- Generator: Adobe Illustrator 28.2.0, SVG Export Plug-In . SVG Version: 6.00 Build 0)  -->
<svg version="1.1" id="Laag_1" xmlns="http://www.w3.org/2000/svg" xmlns:xlink="http://www.w3.org/1999/xlink" x="0px" y="0px"
	 width="20px" height="20px" viewBox="0 0 20 20" style="enable-background:new 0 0 20 20;" xml:space="preserve">
<style type="text/css">
	.st0{fill:#F90606;}
	.st1{fill:#02A4FA;}
</style>
<path id="Path_35" class="st0" d="M10.1,1c-5.3-0.1-9.8,4.1-9.9,9.5c0.1,5.3,4.6,9.6,9.9,9.5c5.3,0.1,9.8-4.1,9.9-9.5
	C19.9,5.1,15.4,0.9,10.1,1z M11.4,15.4H8.7v-2.2h2.8v2.2H11.4z M10.8,11.9H9.3c0,0-0.7-4.5-0.7-4.9c0-0.5,0-1,0-1.5c1,0,2.1,0,3.1,0
	l-0.1,0.3c0,0,0,1.2,0,1.2C11.6,7,10.8,11.9,10.8,11.9z"/>
<path class="st1" d="M11,7"/>
</svg>
